<svg viewBox="0 0 175 176" xmlns="http://www.w3.org/2000/svg"><style>@media (prefers-color-scheme: dark){.h{fill:#EDE8DB}}</style><polygon points="12,110 85,50 158,110" class="h" fill="#1C2B39"/><rect x="26" y="110" width="118" height="60" class="h" fill="#1C2B39"/><rect x="52" y="126" width="22" height="22" fill="#D99A2B"/><polygon points="79,46 60,42 66,51" fill="#D99A2B"/><path d="M78 50 C76 43 77 36 82 32 C84 26 90 23 94 26 L95 25 L107 16 L97 30 L106 26 L97 33 C99 39 97 46 91 50 Z" fill="#D99A2B"/><circle cx="90" cy="28.5" r="1.6" fill="#FDFBF4"/><ellipse cx="112" cy="25" rx="2.7" ry="2.1" transform="rotate(-20 112 25)" fill="#D99A2B"/><path d="M114.5 24.3 V12.8" stroke="#D99A2B" stroke-width="1.6" fill="none"/><ellipse cx="121" cy="22" rx="2.7" ry="2.1" transform="rotate(-20 121 22)" fill="#D99A2B"/><path d="M123.5 21.3 V9.8" stroke="#D99A2B" stroke-width="1.6" fill="none"/><path d="M113.6 12.6 L124.2 9.6" stroke="#D99A2B" stroke-width="3.2" fill="none"/></svg>